<mxfile host="app.diagrams.net" modified="2024-07-13T04:07:42.441Z" agent="Mozilla/5.0 (Windows NT 10.0; Win64; x64) AppleWebKit/537.36 (KHTML, like Gecko) Chrome/126.0.0.0 Safari/537.36" etag="1PMrlvdrQHXP8B9trn-l" version="24.6.5" type="google">
  <diagram name="Page-1" id="3cJGEnQ3oZQ2BwqSxS6h">
    <mxGraphModel grid="1" page="1" gridSize="10" guides="1" tooltips="1" connect="1" arrows="1" fold="1" pageScale="1" pageWidth="850" pageHeight="1100" math="0" shadow="0">
      <root>
        <mxCell id="0" />
        <mxCell id="1" parent="0" />
        <mxCell id="U69c8qNJYMfR6rfDVD6f-12" value="" style="rounded=0;whiteSpace=wrap;html=1;fontFamily=Times New Roman;" vertex="1" parent="1">
          <mxGeometry x="70" y="70" width="460" height="140" as="geometry" />
        </mxCell>
        <mxCell id="U69c8qNJYMfR6rfDVD6f-7" style="edgeStyle=orthogonalEdgeStyle;rounded=0;orthogonalLoop=1;jettySize=auto;html=1;exitX=1;exitY=0.5;exitDx=0;exitDy=0;entryX=0;entryY=0.5;entryDx=0;entryDy=0;fontFamily=Times New Roman;" edge="1" parent="1" source="U69c8qNJYMfR6rfDVD6f-1" target="U69c8qNJYMfR6rfDVD6f-2">
          <mxGeometry relative="1" as="geometry" />
        </mxCell>
        <mxCell id="U69c8qNJYMfR6rfDVD6f-1" value="Start" style="ellipse;whiteSpace=wrap;html=1;fontFamily=Times New Roman;" vertex="1" parent="1">
          <mxGeometry x="80" y="80" width="80" height="40" as="geometry" />
        </mxCell>
        <mxCell id="U69c8qNJYMfR6rfDVD6f-8" style="edgeStyle=orthogonalEdgeStyle;rounded=0;orthogonalLoop=1;jettySize=auto;html=1;exitX=1;exitY=0.5;exitDx=0;exitDy=0;entryX=0;entryY=0.5;entryDx=0;entryDy=0;fontFamily=Times New Roman;" edge="1" parent="1" source="U69c8qNJYMfR6rfDVD6f-2" target="U69c8qNJYMfR6rfDVD6f-3">
          <mxGeometry relative="1" as="geometry" />
        </mxCell>
        <mxCell id="U69c8qNJYMfR6rfDVD6f-2" value="Load Model" style="rounded=1;whiteSpace=wrap;html=1;fontFamily=Times New Roman;" vertex="1" parent="1">
          <mxGeometry x="200" y="80" width="80" height="40" as="geometry" />
        </mxCell>
        <mxCell id="U69c8qNJYMfR6rfDVD6f-9" style="edgeStyle=orthogonalEdgeStyle;rounded=0;orthogonalLoop=1;jettySize=auto;html=1;exitX=1;exitY=0.5;exitDx=0;exitDy=0;entryX=0;entryY=0.5;entryDx=0;entryDy=0;fontFamily=Times New Roman;" edge="1" parent="1" source="U69c8qNJYMfR6rfDVD6f-3" target="U69c8qNJYMfR6rfDVD6f-4">
          <mxGeometry relative="1" as="geometry" />
        </mxCell>
        <mxCell id="U69c8qNJYMfR6rfDVD6f-3" value="Get data from user" style="rounded=1;whiteSpace=wrap;html=1;fontFamily=Times New Roman;" vertex="1" parent="1">
          <mxGeometry x="320" y="80" width="80" height="40" as="geometry" />
        </mxCell>
        <mxCell id="U69c8qNJYMfR6rfDVD6f-10" style="edgeStyle=orthogonalEdgeStyle;rounded=0;orthogonalLoop=1;jettySize=auto;html=1;exitX=0.5;exitY=1;exitDx=0;exitDy=0;entryX=0.5;entryY=0;entryDx=0;entryDy=0;fontFamily=Times New Roman;" edge="1" parent="1" source="U69c8qNJYMfR6rfDVD6f-4" target="U69c8qNJYMfR6rfDVD6f-5">
          <mxGeometry relative="1" as="geometry" />
        </mxCell>
        <mxCell id="U69c8qNJYMfR6rfDVD6f-4" value="Preprocess Data" style="rounded=1;whiteSpace=wrap;html=1;fontFamily=Times New Roman;" vertex="1" parent="1">
          <mxGeometry x="440" y="80" width="80" height="40" as="geometry" />
        </mxCell>
        <mxCell id="U69c8qNJYMfR6rfDVD6f-11" style="edgeStyle=orthogonalEdgeStyle;rounded=0;orthogonalLoop=1;jettySize=auto;html=1;exitX=0;exitY=0.5;exitDx=0;exitDy=0;entryX=1;entryY=0.5;entryDx=0;entryDy=0;fontFamily=Times New Roman;" edge="1" parent="1" source="U69c8qNJYMfR6rfDVD6f-5" target="U69c8qNJYMfR6rfDVD6f-6">
          <mxGeometry relative="1" as="geometry" />
        </mxCell>
        <mxCell id="U69c8qNJYMfR6rfDVD6f-5" value="Make Prediction" style="rounded=1;whiteSpace=wrap;html=1;fontFamily=Times New Roman;" vertex="1" parent="1">
          <mxGeometry x="440" y="160" width="80" height="40" as="geometry" />
        </mxCell>
        <mxCell id="U69c8qNJYMfR6rfDVD6f-6" value="Display Result" style="rounded=1;whiteSpace=wrap;html=1;fontFamily=Times New Roman;" vertex="1" parent="1">
          <mxGeometry x="320" y="160" width="80" height="40" as="geometry" />
        </mxCell>
      </root>
    </mxGraphModel>
  </diagram>
</mxfile>
